<svg xmlns="http://www.w3.org/2000/svg" width="800" height="600" fill="none">
  <rect width="800" height="600" fill="#faf8f5"/>
  <rect x="100" y="80" width="600" height="440" rx="4" fill="#fff" stroke="#e8e8e4" stroke-width="2"/>
  <rect x="140" y="140" width="240" height="180" rx="4" fill="#f4a261" opacity="0.2"/>
  <ellipse cx="260" cy="230" rx="80" ry="60" fill="#f4a261" opacity="0.3"/>
  <text x="260" y="245" text-anchor="middle" font-family="system-ui" font-size="48">🍱</text>
  <rect x="420" y="140" width="240" height="24" rx="4" fill="#e8e8e4"/>
  <rect x="420" y="180" width="200" height="16" rx="4" fill="#e8e8e4" opacity="0.6"/>
  <rect x="420" y="208" width="220" height="16" rx="4" fill="#e8e8e4" opacity="0.6"/>
  <rect x="420" y="236" width="180" height="16" rx="4" fill="#e8e8e4" opacity="0.6"/>
  <rect x="420" y="280" width="100" height="32" rx="4" fill="#e85d75" opacity="0.2"/>
  <text x="470" y="302" text-anchor="middle" fill="#e85d75" font-family="system-ui" font-size="14" font-weight="bold">Recipe</text>
  <line x1="140" y1="360" x2="660" y2="360" stroke="#e8e8e4" stroke-width="1"/>
  <rect x="140" y="390" width="160" height="100" rx="4" fill="#b8d86b" opacity="0.15"/>
  <text x="220" y="450" text-anchor="middle" font-family="system-ui" font-size="32">🥗</text>
  <rect x="320" y="390" width="160" height="100" rx="4" fill="#3d7a9e" opacity="0.15"/>
  <text x="400" y="450" text-anchor="middle" font-family="system-ui" font-size="32">🍳</text>
  <rect x="500" y="390" width="160" height="100" rx="4" fill="#ffc857" opacity="0.15"/>
  <text x="580" y="450" text-anchor="middle" font-family="system-ui" font-size="32">🍰</text>
  <text x="400" y="560" text-anchor="middle" fill="#718096" font-family="system-ui" font-size="20" font-weight="bold">Nanja Recipe</text>
</svg>
