<svg xmlns="http://www.w3.org/2000/svg" width="800" height="600" fill="none">
  <rect width="800" height="600" fill="#1a1f2e"/>
  <rect x="80" y="120" width="640" height="360" rx="4" fill="#242938" stroke="#3d4556" stroke-width="2"/>
  <rect x="80" y="120" width="640" height="40" rx="4" fill="#2d3448"/>
  <circle cx="110" cy="140" r="6" fill="#e85d75"/>
  <circle cx="130" cy="140" r="6" fill="#ffc857"/>
  <circle cx="150" cy="140" r="6" fill="#b8d86b"/>
  <rect x="200" y="132" width="300" height="16" rx="8" fill="#3d4556"/>
  <rect x="120" y="200" width="120" height="100" rx="4" fill="#3d7a9e" opacity="0.3"/>
  <rect x="260" y="200" width="120" height="100" rx="4" fill="#e85d75" opacity="0.3"/>
  <rect x="400" y="200" width="120" height="100" rx="4" fill="#b8d86b" opacity="0.3"/>
  <rect x="540" y="200" width="120" height="100" rx="4" fill="#ffc857" opacity="0.3"/>
  <rect x="120" y="320" width="120" height="100" rx="4" fill="#f4a261" opacity="0.3"/>
  <rect x="260" y="320" width="120" height="100" rx="4" fill="#3d7a9e" opacity="0.3"/>
  <text x="180" y="258" text-anchor="middle" fill="#5a9fc7" font-family="system-ui" font-size="28">🔧</text>
  <text x="320" y="258" text-anchor="middle" fill="#f07a8e" font-family="system-ui" font-size="28">📐</text>
  <text x="460" y="258" text-anchor="middle" fill="#c8e87b" font-family="system-ui" font-size="28">🎨</text>
  <text x="600" y="258" text-anchor="middle" fill="#ffd570" font-family="system-ui" font-size="28">⏱</text>
  <text x="180" y="378" text-anchor="middle" fill="#f5b07a" font-family="system-ui" font-size="28">📝</text>
  <text x="320" y="378" text-anchor="middle" fill="#5a9fc7" font-family="system-ui" font-size="28">🔗</text>
  <text x="400" y="540" text-anchor="middle" fill="#a0aec0" font-family="system-ui" font-size="20" font-weight="bold">N's Webtools</text>
</svg>
